<svg width="32" height="32" viewBox="0 0 32 32" fill="none" xmlns="http://www.w3.org/2000/svg">
<path opacity="0.4" d="M15.9988 29.331C14.9735 29.331 13.9495 28.9417 13.1668 28.1643L12.1935 27.191C11.8161 26.815 11.3108 26.607 10.7748 26.6057H9.40546C7.19212 26.6057 5.39079 24.8043 5.39079 22.591V21.2203C5.38946 20.6857 5.18146 20.1803 4.80412 19.8003L3.84679 18.8443C2.27879 17.2857 2.27212 14.7377 3.83212 13.1683L4.80546 12.1937C5.18146 11.8163 5.38946 11.311 5.39079 10.775V9.40699C5.39079 7.19232 7.19212 5.39099 9.40546 5.39099H10.7761C11.3108 5.39099 11.8148 5.18299 12.1948 4.80299L13.1535 3.84699C14.7121 2.27899 17.2588 2.27099 18.8295 3.83232L19.8028 4.80565C20.1815 5.18299 20.6855 5.39099 21.2201 5.39099H22.5908C24.8041 5.39099 26.6055 7.19232 26.6055 9.40699V10.7763C26.6068 11.311 26.8148 11.8163 27.1921 12.1963L28.1495 13.1537C28.9081 13.9083 29.3281 14.9137 29.3321 15.987C29.3348 17.0537 28.9241 18.0577 28.1761 18.8163C28.1628 18.8297 28.1508 18.8443 28.1375 18.8563L27.1908 19.803C26.8148 20.1803 26.6068 20.6857 26.6055 21.2217V22.591C26.6055 24.8043 24.8041 26.6057 22.5908 26.6057H21.2201C20.6855 26.607 20.1801 26.815 19.8015 27.1923L18.8428 28.1497C18.0615 28.9363 17.0295 29.331 15.9988 29.331" fill="#393939"/>
<path d="M14.55 16.2367L16 15.1471L17.4438 16.2367L16.8938 14.4724L18.3438 13.3333H16.5687L16 11.5938L15.4313 13.3333H13.6562L15.1 14.4724L14.55 16.2367ZM21 13.9524C21 11.2162 18.7625 9 16 9C13.2375 9 11 11.2162 11 13.9524C11 15.209 11.475 16.3481 12.25 17.221V22L16 20.7619L19.75 22V17.221C20.5559 16.3193 21.0006 15.1566 21 13.9524ZM16 10.2381C18.0687 10.2381 19.75 11.9033 19.75 13.9524C19.75 16.0014 18.0687 17.6667 16 17.6667C13.9313 17.6667 12.25 16.0014 12.25 13.9524C12.25 11.9033 13.9313 10.2381 16 10.2381ZM16 19.5238L13.5 20.1552V18.2362C14.2375 18.6571 15.0875 18.9048 16 18.9048C16.9125 18.9048 17.7625 18.6571 18.5 18.2362V20.1552L16 19.5238Z" fill="#00F6FF"/>
</svg>
