<svg width="31" height="31" viewBox="0 0 31 31" fill="none" xmlns="http://www.w3.org/2000/svg">
<path d="M29.9886 16.3182C30.6396 15.4831 31 14.4599 31 13.3954C31 11.7064 30.0274 10.1077 28.4619 9.21613C28.0588 8.98665 27.6 8.86588 27.1327 8.8663H17.8405L18.073 4.2432C18.1273 3.12598 17.7204 2.06519 16.9299 1.25643C16.5419 0.857796 16.0739 0.54063 15.5547 0.32453C15.0355 0.10843 14.4762 -0.00201255 13.9113 2.77618e-05C11.8963 2.77618e-05 10.1138 1.31661 9.579 3.20121L6.25037 14.9H6.23875V31H24.5404C24.8969 31 25.2456 30.9323 25.5673 30.7969C27.4118 30.0333 28.6014 28.2841 28.6014 26.343C28.6014 25.8691 28.5316 25.4026 28.3921 24.9512C29.0431 24.1161 29.4035 23.093 29.4035 22.0284C29.4035 21.5544 29.3337 21.088 29.1942 20.6366C29.8452 19.8015 30.2056 18.7783 30.2056 17.7138C30.1979 17.2398 30.1281 16.7696 29.9886 16.3182ZM0 16.1038V29.7963C0 30.4621 0.554125 31 1.24 31H3.75875V14.9H1.24C0.554125 14.9 0 15.4379 0 16.1038Z" fill="#00F6FF"/>
</svg>
