<svg width="22" height="22" viewBox="0 0 22 22" fill="none" xmlns="http://www.w3.org/2000/svg">
<path d="M10.9377 8.23168L9.4215 9.59201C9.62054 10.2785 9.90056 10.9389 10.2557 11.5592C10.6253 12.1752 11.0699 12.743 11.5793 13.2495L13.5428 12.6445C14.6428 12.3053 15.8437 12.6537 16.5752 13.5245L17.6935 14.8555C18.1463 15.3898 18.3733 16.0794 18.3264 16.7782C18.2795 17.477 17.9624 18.1301 17.4423 18.5992C15.6182 20.2638 12.8095 20.8267 10.7067 19.1748C8.85854 17.7196 7.2948 15.9359 6.094 13.9132C4.89057 11.9 4.08519 9.6743 3.72167 7.35718C3.31834 4.75018 5.22684 2.66385 7.6065 1.95251C9.0255 1.52718 10.5398 2.25685 11.0605 3.61718L11.6747 5.22135C12.078 6.27735 11.7883 7.46718 10.9377 8.22985V8.23168Z" fill="white"/>
</svg>
