<svg width="24" height="26" viewBox="0 0 24 26" fill="none" xmlns="http://www.w3.org/2000/svg">
<path d="M12 0.913696C5.36761 0.913696 0 6.36295 0 13.0975C0 19.8315 5.36705 25.2813 12 25.2813C18.6324 25.2813 24 19.8321 24 13.0975C24 6.36352 18.633 0.913696 12 0.913696ZM18.3522 9.76909L10.6645 17.5746C10.3522 17.8916 9.84548 17.8917 9.53311 17.5746L5.64778 13.6297C5.33536 13.3125 5.33536 12.7982 5.64778 12.481C5.96016 12.1638 6.46673 12.1638 6.77916 12.481L10.0988 15.8515L17.2209 8.62034C17.5333 8.30313 18.0399 8.30313 18.3523 8.62034C18.6646 8.93764 18.6646 9.45188 18.3522 9.76909Z" fill="#00F6FF"/>
</svg>
