<svg width="66" height="66" viewBox="0 0 66 66" fill="none" xmlns="http://www.w3.org/2000/svg">
<circle cx="34.5" cy="32.5" r="25.5" fill="#00040F"/>
<path d="M12.0838 44.4639L22.4069 54.3726L10.1375 58.6401L12.0838 44.4639Z" fill="#00040F"/>
<g filter="url(#filter0_b_402_735)">
<path d="M41.4766 36.0251C42.8389 36.4504 44.1443 37.038 45.3641 37.7751L45.286 37.7301C46.6187 38.3176 47.7701 39.0051 48.8207 39.8126L48.7829 39.7851C48.8333 39.9376 48.8635 40.1101 48.8635 40.2926L48.861 40.3726V40.3701C48.8232 41.4426 48.5839 42.4501 48.1782 43.3676L48.1984 43.3151C47.6164 44.4726 46.6464 45.365 45.4598 45.84L45.4245 45.8525C44.1967 46.4896 42.8389 46.8409 41.4539 46.88H41.4388C38.7953 46.5428 36.2405 45.7096 33.9108 44.4251L34.0191 44.48C31.5445 43.3677 29.2942 41.8183 27.3779 39.9076L27.3754 39.9051C25.2852 37.7456 23.3901 35.4083 21.7117 32.9201L21.5933 32.7351C19.9278 30.5747 18.9615 27.9641 18.822 25.2476L18.8194 25.2151V24.9051C18.8564 23.7447 19.131 22.6039 19.6265 21.5522C20.122 20.5005 20.8281 19.5599 21.7017 18.7876L21.7092 18.7801C22.2489 18.2466 22.9757 17.9411 23.7374 17.9276H23.7399C23.9943 17.9351 24.2387 17.9551 24.4755 17.9901L24.4428 17.9851C24.662 18.0176 24.9164 18.0376 25.1785 18.0426H25.186C25.5528 18.0072 25.9208 18.0972 26.2291 18.2976L26.224 18.2951C26.4936 18.5901 26.7002 18.9476 26.8236 19.3401L26.8287 19.3601C27.037 19.8768 27.4669 21.0135 28.1186 22.7701C28.4587 23.5551 28.7913 24.5226 29.0584 25.5176L29.0936 25.6751C28.9119 26.5452 28.4386 27.3286 27.7508 27.8976L27.7432 27.9026C26.8446 28.8459 26.3953 29.4459 26.3953 29.7026C26.405 29.9131 26.4758 30.1163 26.5994 30.2876L26.5969 30.2851C27.5713 32.284 28.9186 34.0815 30.5675 35.5826L30.5801 35.5951C32.3063 37.1381 34.2415 38.434 36.3294 39.4451L36.4781 39.5101C36.7334 39.6745 37.0281 39.7685 37.3321 39.7826H37.3372C37.7285 39.7826 38.4323 39.1559 39.4485 37.9026C40.4646 36.6492 41.1398 36.0226 41.4741 36.0226L41.4766 36.0251ZM33.548 56.565H33.6034C36.9116 56.5697 40.1844 55.8894 43.2125 54.5675L43.0588 54.6275C48.9945 52.1425 53.6227 47.55 56.0666 41.8176L56.127 41.6601C57.3615 38.8776 58.0796 35.6326 58.0796 32.2226C58.0796 28.8126 57.3615 25.5676 56.0666 22.6301L56.127 22.7851C53.6227 16.8951 48.9945 12.3026 43.2175 9.87765L43.0588 9.81765C40.2547 8.59265 36.9845 7.88016 33.548 7.88016C30.1115 7.88016 26.8413 8.59265 23.881 9.87765L24.0372 9.81765C18.1014 12.3026 13.4732 16.8951 11.0294 22.6276L10.9689 22.7851C9.66991 25.7744 9.00526 28.9972 9.01638 32.2526C9.00824 37.3996 10.6679 42.4129 13.7504 46.5525L13.7025 46.4875L10.6162 55.52L20.0691 52.535C24.018 55.1742 28.6736 56.578 33.4346 56.565H33.553H33.548ZM33.548 3.00017H33.6311C37.7327 3.00017 41.6328 3.85517 45.1575 5.39766L44.9735 5.32516C52.0909 8.31765 57.6412 13.8251 60.5839 20.6976L60.6569 20.8876C62.1384 24.2301 63 28.1276 63 32.2251C63 36.3226 62.1384 40.2201 60.5839 43.7476L60.6569 43.5626C57.6412 50.625 52.0909 56.1325 45.165 59.0525L44.9735 59.125C41.6303 60.595 37.7302 61.45 33.6286 61.45H33.5429H33.548H33.4144C28.227 61.45 23.3569 60.0975 19.1444 57.73L19.2881 57.805L3 63L8.31346 47.3025C5.53986 42.7753 4.08036 37.5758 4.09595 32.2776C4.09595 28.1626 4.95759 24.2476 6.51207 20.7001L6.43901 20.8876C9.45476 13.8251 15.005 8.31765 21.9309 5.39766L22.1224 5.32516C25.7008 3.77841 29.5642 2.98667 33.4674 3.00017H33.5505H33.5455H33.548Z" fill="url(#paint0_linear_402_735)"/>
</g>
<g filter="url(#filter1_f_402_735)">
<path d="M41.4766 36.0251C42.8389 36.4504 44.1443 37.038 45.3641 37.7751L45.286 37.7301C46.6187 38.3176 47.7701 39.0051 48.8207 39.8126L48.7829 39.7851C48.8333 39.9376 48.8635 40.1101 48.8635 40.2926L48.861 40.3726V40.3701C48.8232 41.4426 48.5839 42.4501 48.1782 43.3676L48.1984 43.3151C47.6164 44.4726 46.6464 45.3651 45.4598 45.84L45.4245 45.8525C44.1967 46.4896 42.8389 46.8409 41.4539 46.88H41.4388C38.7953 46.5428 36.2405 45.7096 33.9108 44.4251L34.0191 44.48C31.5445 43.3677 29.2942 41.8183 27.3779 39.9076L27.3754 39.9051C25.2852 37.7456 23.3901 35.4083 21.7117 32.9201L21.5933 32.7351C19.9278 30.5747 18.9615 27.9641 18.822 25.2476L18.8194 25.2151V24.9051C18.8564 23.7447 19.131 22.6039 19.6265 21.5522C20.122 20.5005 20.8281 19.5599 21.7017 18.7876L21.7092 18.7801C22.2489 18.2466 22.9757 17.9411 23.7374 17.9276H23.7399C23.9943 17.9351 24.2387 17.9551 24.4755 17.9901L24.4428 17.9851C24.662 18.0176 24.9164 18.0376 25.1785 18.0426H25.186C25.5528 18.0072 25.9208 18.0972 26.2291 18.2976L26.224 18.2951C26.4936 18.5901 26.7002 18.9476 26.8236 19.3401L26.8287 19.3601C27.037 19.8768 27.4669 21.0134 28.1186 22.7701C28.4587 23.5551 28.7913 24.5226 29.0584 25.5176L29.0936 25.6751C28.9119 26.5452 28.4386 27.3286 27.7508 27.8976L27.7432 27.9026C26.8446 28.8459 26.3953 29.4459 26.3953 29.7026C26.405 29.9131 26.4758 30.1163 26.5994 30.2876L26.5969 30.2851C27.5713 32.284 28.9186 34.0815 30.5675 35.5826L30.5801 35.5951C32.3063 37.1381 34.2415 38.434 36.3294 39.4451L36.4781 39.5101C36.7334 39.6745 37.0281 39.7685 37.3321 39.7826H37.3372C37.7285 39.7826 38.4323 39.1559 39.4485 37.9026C40.4646 36.6492 41.1398 36.0226 41.4741 36.0226L41.4766 36.0251ZM33.548 56.565H33.6034C36.9116 56.5697 40.1844 55.8894 43.2125 54.5675L43.0588 54.6275C48.9945 52.1425 53.6227 47.55 56.0666 41.8176L56.127 41.6601C57.3615 38.8776 58.0796 35.6326 58.0796 32.2226C58.0796 28.8126 57.3615 25.5676 56.0666 22.6301L56.127 22.7851C53.6227 16.8951 48.9945 12.3026 43.2175 9.87765L43.0588 9.81765C40.2547 8.59265 36.9845 7.88016 33.548 7.88016C30.1115 7.88016 26.8413 8.59265 23.881 9.87765L24.0372 9.81765C18.1014 12.3026 13.4732 16.8951 11.0294 22.6276L10.9689 22.7851C9.66991 25.7744 9.00526 28.9972 9.01638 32.2526C9.00824 37.3996 10.6679 42.4129 13.7504 46.5525L13.7025 46.4875L10.6162 55.52L20.0691 52.535C24.018 55.1742 28.6736 56.578 33.4346 56.565H33.553H33.548ZM33.548 3.00017H33.6311C37.7327 3.00017 41.6328 3.85517 45.1575 5.39766L44.9735 5.32516C52.0909 8.31765 57.6412 13.8251 60.5839 20.6976L60.6569 20.8876C62.1384 24.2301 63 28.1276 63 32.2251C63 36.3226 62.1384 40.2201 60.5839 43.7476L60.6569 43.5626C57.6412 50.625 52.0909 56.1325 45.165 59.0525L44.9735 59.125C41.6303 60.595 37.7302 61.45 33.6286 61.45H33.5429H33.548H33.4144C28.227 61.45 23.3569 60.0975 19.1444 57.73L19.2881 57.805L3 63L8.31346 47.3025C5.53986 42.7753 4.08036 37.5758 4.09595 32.2776C4.09595 28.1626 4.95759 24.2476 6.51207 20.7001L6.43901 20.8876C9.45476 13.8251 15.005 8.31765 21.9309 5.39766L22.1224 5.32516C25.7008 3.77841 29.5642 2.98667 33.4674 3.00017H33.5505H33.5455H33.548Z" fill="url(#paint1_linear_402_735)"/>
</g>
<defs>
<filter id="filter0_b_402_735" x="-9" y="-9" width="84" height="84" filterUnits="userSpaceOnUse" color-interpolation-filters="sRGB">
<feFlood flood-opacity="0" result="BackgroundImageFix"/>
<feGaussianBlur in="BackgroundImageFix" stdDeviation="6"/>
<feComposite in2="SourceAlpha" operator="in" result="effect1_backgroundBlur_402_735"/>
<feBlend mode="normal" in="SourceGraphic" in2="effect1_backgroundBlur_402_735" result="shape"/>
</filter>
<filter id="filter1_f_402_735" x="0" y="0" width="66" height="66" filterUnits="userSpaceOnUse" color-interpolation-filters="sRGB">
<feFlood flood-opacity="0" result="BackgroundImageFix"/>
<feBlend mode="normal" in="SourceGraphic" in2="BackgroundImageFix" result="shape"/>
<feGaussianBlur stdDeviation="1.5" result="effect1_foregroundBlur_402_735"/>
</filter>
<linearGradient id="paint0_linear_402_735" x1="66.2576" y1="32.8894" x2="-1.01369" y2="32.8894" gradientUnits="userSpaceOnUse">
<stop stop-color="#1943B5"/>
<stop offset="0.953125" stop-color="#30CDDF"/>
</linearGradient>
<linearGradient id="paint1_linear_402_735" x1="66.2576" y1="32.8894" x2="-1.01369" y2="32.8894" gradientUnits="userSpaceOnUse">
<stop stop-color="#33BBCF"/>
<stop offset="1" stop-color="#DEF9FA"/>
</linearGradient>
</defs>
</svg>
